# xmcd
#
# Track frame offsets:
#	182
#	22945
#	51352
#	64757
#	93190
#	108285
#	137507
#	149967
#	179352
#	193437
#	215825
#	229880
#	251155
#	263645
#	279097
#
# Disc length: 4068
#
# Revision: 1
# Processed by: cddbd v1.5.1PL0 Copyright (c) Steve Scherf et al.
# Submitted via: CDex 1.50Beta7
# Normalized: r0:DSETVAR1,TDELIM( - )
#
DISCID=e60fe20f
DTITLE=Various Artist - Jazz autour de minuit
DYEAR=1989
DGENRE=Jazz
TTITLE0=Ben Webster and Coleman Hawkins - La rosita
TTITLE1=Billie Holiday - Darn that dream
TTITLE2=Charlie Parker - Laura
TTITLE3=Johnny Hodges - Mood indigo
TTITLE4=Anita O'Day - Tenderly
TTITLE5=Ben Webster and Coleman Hawkins - Maria
TTITLE6=Ella Fitzgerald - In a sentimental mood
TTITLE7=Bill Evans - Round about midnight
TTITLE8=Don Byas - Misty
TTITLE9=Ella Fitzgerald and Louis Armstrong - Summertime
TTITLE10=Charlie Parker - April in Paris
TTITLE11=Stan Getz - O grande amor
TTITLE12=Billie Holiday - Lover man
TTITLE13=Lester Young - These foolish things
TTITLE14=Stan Getz - Manha de carnaval
EXTD=YEAR: 1989
EXTT0=
EXTT1=
EXTT2=
EXTT3=
EXTT4=
EXTT5=
EXTT6=
EXTT7=
EXTT8=
EXTT9=
EXTT10=
EXTT11=
EXTT12=
EXTT13=
EXTT14=
PLAYORDER=
